<svg id="svg" xmlns="http://www.w3.org/2000/svg" xmlns:xlink="http://www.w3.org/1999/xlink" width="400" height="400" viewBox="0, 0, 400,400"><g id="svgg"><path id="path0" d="M159.223 57.667 C 152.282 58.001,144.528 58.750,141.994 59.331 L 137.386 60.388 138.195 131.184 L 139.003 201.981 132.123 204.033 C 66.498 223.604,55.540 183.997,104.539 104.335 C 114.450 88.221,114.450 88.582,104.517 82.311 C 95.096 76.364,96.152 75.618,83.585 97.087 C 28.820 190.647,47.905 245.437,128.641 226.438 L 139.806 223.811 139.806 285.692 L 139.806 347.573 150.485 347.573 L 161.165 347.573 161.165 282.500 L 161.165 217.427 172.086 212.597 C 178.093 209.940,183.280 207.767,183.613 207.767 C 183.945 207.767,183.699 233.107,183.066 264.078 C 182.024 314.988,182.213 320.388,185.035 320.388 C 186.752 320.388,188.935 321.779,189.886 323.479 C 193.500 329.937,250.905 303.235,273.825 284.434 C 315.392 250.337,296.772 211.673,229.833 193.086 L 217.918 189.778 232.746 179.889 C 317.797 123.170,308.851 66.751,213.467 58.309 C 192.038 56.413,186.601 56.348,159.223 57.667 M233.373 82.347 C 283.400 91.919,280.041 119.101,223.896 159.052 L 206.796 171.220 206.251 147.746 L 205.706 124.272 195.086 124.272 L 184.466 124.272 184.466 154.110 L 184.466 183.948 174.272 188.262 C 168.665 190.635,162.985 193.029,161.650 193.583 C 159.741 194.376,159.223 182.363,159.223 137.243 C 159.223 84.314,159.485 79.817,162.621 78.866 C 168.760 77.005,218.154 79.435,233.373 82.347 M244.660 221.666 C 289.124 241.718,283.504 260.454,224.315 289.497 L 204.854 299.046 204.265 263.601 C 203.941 244.106,204.210 223.668,204.862 218.183 L 206.049 208.212 219.044 212.093 C 226.191 214.227,237.718 218.535,244.660 221.666 " stroke="none" fill="#000000" fill-rule="evenodd"></path></g></svg>